<?xml version="1.0" standalone="no"?><!DOCTYPE svg PUBLIC "-//W3C//DTD SVG 1.1//EN" "http://www.w3.org/Graphics/SVG/1.1/DTD/svg11.dtd"><svg t="1613375454532" class="icon" viewBox="0 0 1024 1024" version="1.1" xmlns="http://www.w3.org/2000/svg" p-id="2163" xmlns:xlink="http://www.w3.org/1999/xlink" width="200" height="200"><defs><style type="text/css"></style></defs><path d="M1024 514.688h-96V128a32 32 0 0 0-32-32H128a32 32 0 0 0-32 32v768a32 32 0 0 0 32 32h489.088V1024H128a128 128 0 0 1-128-128V128a128 128 0 0 1 128-128h768a128 128 0 0 1 128 128v386.688z" fill="#1fa3ea" p-id="2164" data-spm-anchor-id="a313x.7781069.0.i0" class="selected"></path><path d="M576 848v-96h445.44v96z" fill="#1fa3ea" p-id="2165" data-spm-anchor-id="a313x.7781069.0.i1" class="selected"></path><path d="M752 576h96v447.168h-96z" fill="#1fa3ea" p-id="2166" data-spm-anchor-id="a313x.7781069.0.i9" class="selected"></path><path d="M256 256m32 0l448 0q32 0 32 32l0 0q0 32-32 32l-448 0q-32 0-32-32l0 0q0-32 32-32Z" fill="#1fa3ea" p-id="2167" data-spm-anchor-id="a313x.7781069.0.i4" class="selected"></path><path d="M256 448m32 0l448 0q32 0 32 32l0 0q0 32-32 32l-448 0q-32 0-32-32l0 0q0-32 32-32Z" fill="#1fa3ea" p-id="2168" data-spm-anchor-id="a313x.7781069.0.i3" class="selected"></path><path d="M256 640m32 0l192 0q32 0 32 32l0 0q0 32-32 32l-192 0q-32 0-32-32l0 0q0-32 32-32Z" fill="#1fa3ea" p-id="2169" data-spm-anchor-id="a313x.7781069.0.i2" class="selected"></path></svg>