<?xml version="1.0" standalone="no"?><!DOCTYPE svg PUBLIC "-//W3C//DTD SVG 1.1//EN" "http://www.w3.org/Graphics/SVG/1.1/DTD/svg11.dtd"><svg t="1612084232718" class="icon" viewBox="0 0 1024 1024" version="1.1" xmlns="http://www.w3.org/2000/svg" p-id="810" xmlns:xlink="http://www.w3.org/1999/xlink" width="200" height="200"><defs><style type="text/css"></style></defs><path d="M501.333333 224h64a21.333333 21.333333 0 0 1 21.333334 21.333333v64a21.333333 21.333333 0 0 1-21.333334 21.333334h-64a21.333333 21.333333 0 0 1-21.333333-21.333334v-64a21.333333 21.333333 0 0 1 21.333333-21.333333z m0 256h64a21.333333 21.333333 0 0 1 21.333334 21.333333v64a21.333333 21.333333 0 0 1-21.333334 21.333334h-64a21.333333 21.333333 0 0 1-21.333333-21.333334v-64a21.333333 21.333333 0 0 1 21.333333-21.333333z m0 256h64a21.333333 21.333333 0 0 1 21.333334 21.333333v64a21.333333 21.333333 0 0 1-21.333334 21.333334h-64a21.333333 21.333333 0 0 1-21.333333-21.333334v-64a21.333333 21.333333 0 0 1 21.333333-21.333333z" fill="#bfbfbf" p-id="811"></path></svg>