<svg id="Capa_1" enable-background="new 0 0 485.722 485.722" height="512" viewBox="0 0 485.722 485.722" width="512" xmlns="http://www.w3.org/2000/svg"><g><path d="m466.919 407.927 17.747 30c2.958 5-.646 11.319-6.455 11.319h-21.709l-41.534-22.5 14.914-22.5h30.583c2.65 0 5.104 1.399 6.454 3.681z" fill="#373e9f"/><path d="m431.418 347.928 8.87 15c2.956 5-.647 11.318-6.456 11.318h-21.702l-39.14-15 21.39-15h30.582c2.652 0 5.107 1.4 6.456 3.682z" fill="#9255e3"/><path d="m369.289 242.927 35.496 60c2.958 5-.646 11.319-6.455 11.319h-21.699l-49.807-37.5 5.437-37.5h30.573c2.651 0 5.105 1.399 6.455 3.681z" fill="#f63"/><path d="m324.919 167.927 17.747 30c2.958 5-.646 11.319-6.455 11.319h-21.699l-42.894-22.5 16.264-22.5h30.583c2.65 0 5.104 1.399 6.454 3.681z" fill="#f9b348"/><path d="m249.316 40.157 48.968 82.77c2.958 5-.646 11.319-6.455 11.319h-21.699l-44.69-15.55v-60l10.965-18.538c2.905-4.909 10.007-4.909 12.911-.001z" fill="#61ce5b"/><path d="m429.881 404.246 26.62 45h-448.99c-5.809 0-9.413-6.319-6.455-11.319l17.747-30c1.35-2.282 3.804-3.681 6.455-3.681z" fill="#3857bc"/><path d="m394.381 344.246 17.75 30h-360.242c-5.808 0-9.412-6.318-6.456-11.318l8.87-15c1.35-2.282 3.804-3.682 6.456-3.682z" fill="#ae7df0"/><path d="m332.261 239.246 44.37 75h-289.239c-5.809 0-9.413-6.319-6.455-11.319l35.496-60c1.35-2.282 3.804-3.681 6.455-3.681z" fill="#ff8b47"/><path d="m314.511 209.246h-165c-5.809 0-9.413-6.319-6.455-11.319l17.747-30c1.35-2.282 3.804-3.681 6.455-3.681h120.623z" fill="#f3da49"/><path d="m225.441 58.696 44.69 75.55h-76.238c-5.809 0-9.413-6.319-6.455-11.319z" fill="#94e368"/></g></svg>