<?xml version="1.0" encoding="iso-8859-1"?>
<!-- Generator: Adobe Illustrator 19.0.0, SVG Export Plug-In . SVG Version: 6.00 Build 0)  -->
<svg version="1.1" id="Capa_1" xmlns="http://www.w3.org/2000/svg" xmlns:xlink="http://www.w3.org/1999/xlink" x="0px" y="0px"
	 viewBox="0 0 385.6 385.6" style="enable-background:new 0 0 385.6 385.6;" xml:space="preserve">
<g>
	<circle style="fill:#B0CA4B;" cx="192" cy="192.8" r="192"/>
	<circle style="fill:#EAEBC2;" cx="192" cy="192.8" r="148"/>
	<g>
		<path style="fill:#402810;" d="M192,36.8c-4.4,0-8,3.6-8,8v28c0,4.4,3.6,8,8,8c4.4,0,8-3.6,8-8v-28C200,40.4,196.4,36.8,192,36.8z
			"/>
		<path style="fill:#402810;" d="M311.6,184.8c-4.4,0-8,3.6-8,8s3.6,8,8,8H340c4.4,0,8-3.6,8-8s-3.6-8-8-8H311.6z"/>
		<path style="fill:#402810;" d="M72,184.8H43.6c-4.4,0-8,3.6-8,8s3.6,8,8,8H72c4.4,0,8-3.6,8-8S76.4,184.8,72,184.8z"/>
		<path style="fill:#402810;" d="M168,200.8c1.2,3.6,3.2,7.2,6,10l0,0c4.4,4.4,10.8,7.2,18,7.2c6.8,0,13.2-2.8,18-7.2l0,0
			c4.4-4.4,7.2-10.8,7.2-18c0-6.8-2.8-13.2-7.2-18l0,0l0,0c-2.8-2.8-6-4.8-10-6V104c0-4.4-3.6-8-8-8s-8,3.6-8,8v64.8
			c-3.6,1.2-6.8,3.2-9.2,5.6l-0.4,0.4c-2.8,2.8-4.8,6-6,10h-49.2c-4.4,0-8,3.6-8,8s3.6,8,8,8H168z M198.4,199.2
			c-1.6,1.6-4,2.8-6.4,2.8s-4.8-1.2-6.4-2.8c-1.6-1.6-2.8-4-2.8-6.4l0,0l0,0c0-2.4,1.2-4.8,2.8-6.4c0,0,0-0.4,0.4-0.4
			c1.6-1.6,4-2.4,6.4-2.4l0,0l0,0c2.4,0,4.8,1.2,6.4,2.8l0,0c1.6,1.6,2.8,4,2.8,6.4C201.2,195.2,200,197.6,198.4,199.2z"/>
		<path style="fill:#402810;" d="M184,312.8v28.4c0,4.4,3.6,8,8,8c4.4,0,8-3.6,8-8v-28.4c0-4.4-3.6-8-8-8
			C187.6,304.8,184,308.4,184,312.8z"/>
		<circle style="fill:#402810;" cx="312.4" cy="311.6" r="73.2"/>
	</g>
	<path style="fill:#B0CA4B;" d="M306.8,271.6v5.2c-5.2,1.2-9.6,4-13.2,8c-3.2,4-5.2,8.4-5.2,13.6c0,5.6,2,10,6,12.8
		c4,3.2,9.6,5.2,16.4,6.8c6.4,1.2,9.6,3.6,9.6,6.8c0,1.6-0.8,3.2-2.4,4.4c-1.6,1.2-3.6,2-6,2c-1.2,0-2,0-2.8,0s-2-0.4-2.8-0.4
		c-0.8-0.4-1.6-0.4-2-0.8c-0.4,0-1.2-0.4-2-0.8s-1.2-0.4-1.6-0.8c-2.4-0.8-4.8-1.6-6.4-1.6c-2,0-3.6,0.8-5.2,2.4c-1.6,1.6-2,3.6-2,6
		c0,3.2,1.6,6,5.2,7.6c3.6,2,8,3.2,14,4v6c0,1.6,0.8,3.2,2,4s2.8,1.2,4.8,1.2s3.6-0.4,4.8-1.2c1.2-0.8,2-2.4,1.6-4.4v-6
		c5.6-1.2,10-4,13.2-7.6s4.8-8.4,4.8-14.4c0-6.4-2-10.8-5.6-14c-3.6-3.2-9.2-5.6-16-6.8c-3.6-0.8-6.4-1.6-8-2.4
		c-1.6-0.8-2.8-2-2.8-3.6s0.8-3.2,2.4-4.4c1.6-1.2,3.6-2,5.6-2c2.4,0,5.2,0.4,8,1.6c3.2,1.2,5.2,2,6.8,2c2,0,3.6-0.8,4.8-2.4
		s2-3.6,2-5.2c0-3.6-1.2-6-4-7.2c-3.2-1.6-7.2-2.8-11.6-3.6v-5.2c0-2-0.8-3.2-2-4.4c-1.2-0.8-2.8-1.6-4.8-1.6s-3.2,0.4-4.4,1.6
		C307.2,268,306.4,269.6,306.8,271.6z"/>
</g>
<g>
</g>
<g>
</g>
<g>
</g>
<g>
</g>
<g>
</g>
<g>
</g>
<g>
</g>
<g>
</g>
<g>
</g>
<g>
</g>
<g>
</g>
<g>
</g>
<g>
</g>
<g>
</g>
<g>
</g>
</svg>
